<svg width="32" height="30" fill="none" xmlns="http://www.w3.org/2000/svg">
  <path
    d="M26.8689 15.0892C26.0282 15.0892 25.3443 14.4053 25.3443 13.5646C25.3443 12.7239 26.0282 12.04 26.8689 12.04C27.7096 12.04 28.3935 12.7239 28.3935 13.5646C28.3935 14.4053 27.7096 15.0892 26.8689 15.0892ZM6.53653 27.3076H3.4872V24.2583H6.53653V27.3076ZM31.0859 13.5646C31.0859 11.4756 29.5578 9.74143 27.5615 9.40949C25.8025 3.95657 20.6811 -5.59777e-07 14.6505 -5.59777e-07H3.66558V14.0481L1.90383 12.2863L0 14.1902L5.01194 19.2021L10.0237 14.1902L8.1199 12.2863L6.35815 14.0481V2.69242H14.6505C19.3426 2.69242 23.3394 5.68497 24.8595 9.85792C23.5455 10.573 22.6519 11.9663 22.6519 13.5646C22.6519 15.1636 23.5465 16.5576 24.8615 17.2724C23.3412 21.4452 19.3425 24.4368 14.6505 24.4368H9.22894V21.5658H0.794788V30H9.22894V27.1291H14.6505C20.6788 27.1291 25.7894 23.1712 27.55 17.7214C29.5519 17.3943 31.0859 15.6574 31.0859 13.5646"
    fill="#5364FF"
  />
</svg>
