<svg
  width="126"
  height="30"
  viewBox="0 0 126 30"
  fill="none"
  xmlns="http://www.w3.org/2000/svg"
  aria-label="Direktiv"
>
  <path
    d="M47.872 19.51C48.4429 19.1852 48.8951 18.7211 49.2281 18.1183C49.5611 17.5155 49.7277 16.8178 49.7277 16.0245C49.7277 15.2315 49.5611 14.5337 49.2281 13.9308C48.8951 13.3282 48.4429 12.8642 47.872 12.539C47.301 12.214 46.6586 12.0511 45.9447 12.0511C45.2311 12.0511 44.5886 12.214 44.0176 12.539C43.4467 12.8642 42.9945 13.3282 42.6615 13.9308C42.3285 14.5337 42.1619 15.2315 42.1619 16.0245C42.1619 16.8178 42.3285 17.5155 42.6615 18.1183C42.9945 18.7211 43.4467 19.1852 44.0176 19.51C44.5886 19.8354 45.2311 19.9978 45.9447 19.9978C46.6586 19.9978 47.301 19.8354 47.872 19.51V19.51ZM52.6542 4.72323V22.377H49.7991V20.7355C49.3074 21.3384 48.7006 21.7904 47.979 22.0915C47.2571 22.3927 46.46 22.5435 45.588 22.5435C44.3663 22.5435 43.2683 22.274 42.2928 21.7346C41.3173 21.1957 40.5518 20.4301 39.9967 19.4386C39.4414 18.4476 39.1641 17.3092 39.1641 16.0245C39.1641 14.7398 39.4414 13.6058 39.9967 12.6223C40.5518 11.6389 41.3173 10.8776 42.2928 10.3382C43.2683 9.79908 44.3663 9.52919 45.588 9.52919C46.4285 9.52919 47.1976 9.67205 47.8959 9.95761C48.5936 10.243 49.1884 10.6713 49.6803 11.2422V4.72323H52.6542"
    fill="#ededed"
  />

  <path d="M55.4873 9.67026H58.4612V22.3752H55.4873V9.67026Z" fill="#ededed" />
  <path
    d="M68.6308 9.52741V12.3586C68.3768 12.3112 68.1467 12.2873 67.9407 12.2873C66.7828 12.2873 65.8786 12.6245 65.2284 13.2985C64.5779 13.9729 64.2529 14.9443 64.2529 16.213V22.3752H61.2788V9.67026H64.1102V11.526C64.9667 10.1938 66.4735 9.52741 68.6308 9.52741Z"
    fill="#ededed"
  />
  <path
    d="M73.355 12.753C72.6965 13.3162 72.2962 14.0657 72.1535 15.0015H79.3623C79.2352 14.0817 78.8467 13.3359 78.1966 12.7651C77.5459 12.194 76.7372 11.9086 75.7697 11.9086C74.8181 11.9086 74.013 12.1903 73.355 12.753V12.753ZM82.146 16.9761H72.1772C72.3516 17.9123 72.8077 18.6536 73.5453 19.2007C74.2827 19.748 75.1988 20.0215 76.2931 20.0215C77.6888 20.0215 78.8389 19.5618 79.7432 18.6416L81.3371 20.4735C80.766 21.1558 80.0441 21.6714 79.1721 22.0201C78.2996 22.3693 77.3164 22.5435 76.2219 22.5435C74.8259 22.5435 73.5966 22.2661 72.5341 21.711C71.4712 21.1558 70.6503 20.3825 70.0716 19.3911C69.4924 18.4 69.2031 17.2778 69.2031 16.0245C69.2031 14.7873 69.4847 13.6731 70.0479 12.6817C70.6108 11.6905 71.3921 10.9173 72.3913 10.362C73.3905 9.80684 74.5166 9.52919 75.7697 9.52919C77.0071 9.52919 78.1135 9.80281 79.0888 10.35C80.0643 10.8973 80.8256 11.6668 81.3728 12.6579C81.9202 13.6494 82.1937 14.7955 82.1937 16.096C82.1937 16.3023 82.1777 16.5954 82.146 16.9761Z"
    fill="#ededed"
  />
  <path
    d="M89.4504 16.9268L87.2376 19.0207V22.3752H84.2637V4.72145H87.2376V15.3802L93.3999 9.67026H96.9686L91.6631 14.9997L97.4683 22.3752H93.852L89.4504 16.9268Z"
    fill="#ededed"
  />
  <path
    d="M104.89 19.5695C104.446 19.9187 103.891 20.0929 103.225 20.0929C102.654 20.0929 102.217 19.9305 101.916 19.6052C101.615 19.2804 101.464 18.8082 101.464 18.1897V12.0513H104.866V9.67204H101.464V6.28303H98.4902V18.261C98.4902 19.6568 98.8709 20.7197 99.6322 21.449C100.393 22.1788 101.472 22.5435 102.868 22.5435C103.423 22.5435 103.951 22.4721 104.45 22.3294C104.95 22.1867 105.374 21.9725 105.723 21.6871L104.89 19.5695"
    fill="#ededed"
  />
  <path d="M107.387 9.67026H110.361V22.3752H107.387V9.67026Z" fill="#ededed" />
  <path
    d="M125.374 9.67026L119.926 22.3752H116.857L111.409 9.67026H114.502L118.451 19.092L122.52 9.67026H125.374Z"
    fill="#ededed"
  />
  <path
    d="M110.671 5.79123C110.671 6.77665 109.872 7.57562 108.887 7.57562C107.901 7.57562 107.102 6.77665 107.102 5.79123C107.102 4.80565 107.901 4.00668 108.887 4.00668C109.872 4.00668 110.671 4.80565 110.671 5.79123Z"
    fill="#ededed"
  />
  <path
    d="M58.7573 5.79123C58.7573 6.77665 57.9584 7.57562 56.9729 7.57562C55.9874 7.57562 55.1885 6.77665 55.1885 5.79123C55.1885 4.80565 55.9874 4.00668 56.9729 4.00668C57.9584 4.00668 58.7573 4.80565 58.7573 5.79123Z"
    fill="#ededed"
  />
  <path
    d="M26.8689 15.0892C26.0282 15.0892 25.3443 14.4053 25.3443 13.5646C25.3443 12.7239 26.0282 12.04 26.8689 12.04C27.7096 12.04 28.3935 12.7239 28.3935 13.5646C28.3935 14.4053 27.7096 15.0892 26.8689 15.0892ZM6.53653 27.3076H3.4872V24.2583H6.53653V27.3076ZM31.0859 13.5646C31.0859 11.4756 29.5578 9.74143 27.5615 9.40949C25.8025 3.95657 20.6811 -5.59777e-07 14.6505 -5.59777e-07H3.66558V14.0481L1.90383 12.2863L0 14.1902L5.01194 19.2021L10.0237 14.1902L8.1199 12.2863L6.35815 14.0481V2.69242H14.6505C19.3426 2.69242 23.3394 5.68497 24.8595 9.85792C23.5455 10.573 22.6519 11.9663 22.6519 13.5646C22.6519 15.1636 23.5465 16.5576 24.8615 17.2724C23.3412 21.4452 19.3425 24.4368 14.6505 24.4368H9.22894V21.5658H0.794788V30H9.22894V27.1291H14.6505C20.6788 27.1291 25.7894 23.1712 27.55 17.7214C29.5519 17.3943 31.0859 15.6574 31.0859 13.5646"
    fill="#5364FF"
  />
</svg>
